<?xml version="1.0" encoding="utf-8"?>
<!-- Generator: Adobe Illustrator 19.2.0, SVG Export Plug-In . SVG Version: 6.00 Build 0)  -->
<!DOCTYPE svg PUBLIC "-//W3C//DTD SVG 1.1//EN" "http://www.w3.org/Graphics/SVG/1.1/DTD/svg11.dtd">
<svg version="1.1" id="圖層_1" xmlns="http://www.w3.org/2000/svg" xmlns:xlink="http://www.w3.org/1999/xlink" x="0px" y="0px"
	 viewBox="0 0 325 260" style="enable-background:new 0 0 325 260;" xml:space="preserve">
<style type="text/css">
	.st0{fill:#F6F5F5;}
	.st1{fill:none;stroke:#BEBDBD;stroke-width:6.9749;stroke-linecap:round;stroke-linejoin:round;stroke-miterlimit:10;}
	.st2{fill:none;}
	.st3{fill:#BEBDBD;}
	.st4{clip-path:url(#XMLID_14_);fill:#80B029;}
	.st5{clip-path:url(#XMLID_14_);fill:#5E6A71;}
	.st6{clip-path:url(#XMLID_15_);fill:#80B029;}
	.st7{clip-path:url(#XMLID_15_);fill:#5E6A71;}
	.st8{fill:none;stroke:#F6F5F5;stroke-width:13.9498;stroke-linecap:round;stroke-linejoin:round;stroke-miterlimit:10;}
	.st9{fill:#BEBDBD;stroke:#BEBDBD;stroke-width:2.6156;stroke-miterlimit:10;}
</style>
<g>
	<g>
		<path id="XMLID_631_" class="st0" d="M253.2,234.6H71.8c-7.7,0-13.9-6.2-13.9-13.9V39.3c0-7.7,6.2-13.9,13.9-13.9h181.3
			c7.7,0,13.9,6.2,13.9,13.9v181.3C267.1,228.4,260.9,234.6,253.2,234.6z"/>
		<path id="XMLID_620_" class="st1" d="M220.6,185.9c-3.1-1.9-29.1-5.8-33.5-9.1c-4.3-3.3-10.7-11.5-11.8-18.4
			c14.4-6.7,24.6-30.5,24.6-50.7c0-26-16.9-40.3-37.8-40.3s-37.8,14.3-37.8,40.3c0,20.2,10.3,44.1,24.6,50.7
			c-1.2,6.9-7.5,15.1-11.8,18.4c-4.3,3.3-30.4,7.2-33.5,9.1"/>
		<g id="XMLID_616_">
			<path class="st8" d="M118.9,128.6c9.1,6.8,18.8,6.9,27.3,7.4"/>
			<path class="st1" d="M118.9,128.6c9.1,6.8,18.8,6.9,27.3,7.4"/>
		</g>
		<path id="XMLID_615_" class="st1" d="M122.8,99.3c-7.3-0.6-15.6,21.2-3.9,29.3c10.6,7.4,18.8,6.9,27.3,7.4"/>
		<path id="XMLID_614_" class="st1" d="M155.3,128c-3.5,0-6.3,2.8-6.3,6.3c0,3.5,2.8,6.3,6.3,6.3c3.5,0,6.3-2.8,6.3-6.3
			C161.5,130.8,158.7,128,155.3,128L155.3,128z"/>
	</g>
	<rect class="st2" width="325" height="260"/>
</g>
</svg>
