<?xml version="1.0" encoding="utf-8"?>
<!-- Generator: Adobe Illustrator 19.2.0, SVG Export Plug-In . SVG Version: 6.00 Build 0)  -->
<!DOCTYPE svg PUBLIC "-//W3C//DTD SVG 1.1//EN" "http://www.w3.org/Graphics/SVG/1.1/DTD/svg11.dtd">
<svg version="1.1" id="圖層_1" xmlns="http://www.w3.org/2000/svg" xmlns:xlink="http://www.w3.org/1999/xlink" x="0px" y="0px"
	 viewBox="0 0 325 260" style="enable-background:new 0 0 325 260;" xml:space="preserve">
<style type="text/css">
	.st0{fill:#F6F5F5;}
	.st1{fill:none;stroke:#BEBDBD;stroke-width:6.9749;stroke-linecap:round;stroke-linejoin:round;stroke-miterlimit:10;}
	.st2{fill:none;}
	.st3{fill:#BEBDBD;}
	.st4{clip-path:url(#XMLID_14_);fill:#80B029;}
	.st5{clip-path:url(#XMLID_14_);fill:#5E6A71;}
	.st6{clip-path:url(#XMLID_15_);fill:#80B029;}
	.st7{clip-path:url(#XMLID_15_);fill:#5E6A71;}
	.st8{fill:none;stroke:#F6F5F5;stroke-width:13.9498;stroke-linecap:round;stroke-linejoin:round;stroke-miterlimit:10;}
	.st9{fill:#BEBDBD;stroke:#BEBDBD;stroke-width:2.6156;stroke-miterlimit:10;}
</style>
<g>
	<g>
		<path id="XMLID_628_" class="st0" d="M253.2,234.6H71.8c-7.7,0-13.9-6.2-13.9-13.9V39.3c0-7.7,6.2-13.9,13.9-13.9h181.3
			c7.7,0,13.9,6.2,13.9,13.9v181.3C267.1,228.4,260.9,234.6,253.2,234.6z"/>
		<path id="XMLID_621_" class="st9" d="M164.1,107.6c-12.4-0.9-23.1,8.6-24,20.8c-0.9,12.3,8.4,23.1,20.8,24c0.6,0,1.1,0.1,1.6,0.1
			c11.7,0,21.5-9.2,22.4-20.8C185.8,119.3,176.5,108.5,164.1,107.6z M161.1,148.8c-10.4-0.7-18.2-9.8-17.5-20.2
			c0.7-9.8,9-17.5,18.8-17.5c0.5,0,0.9,0,1.4,0c10.4,0.7,18.2,9.8,17.5,20.2C180.6,141.6,171.6,149.6,161.1,148.8z M216.4,123.1
			c0.6-0.4,0.9-1.2,0.7-2l-4-13.4c-0.2-0.7-0.9-1.2-1.6-1.3l-11.5-0.6l-6-7.5l1.8-11.4c0.1-0.8-0.2-1.5-0.9-1.9l-12.3-6.7
			c-0.7-0.4-1.5-0.3-2.1,0.2l-8.6,7.7l-9.6-1l-6.8-9.3c-0.4-0.6-1.2-0.9-2-0.7l-13.4,4c-0.7,0.2-1.2,0.9-1.3,1.6l-0.6,11.5l-7.5,6
			l-11.4-1.8c-0.8-0.1-1.5,0.3-1.9,0.9l-6.7,12.3c-0.4,0.7-0.3,1.5,0.2,2.1l7.7,8.6l-1,9.6l-9.3,6.8c-0.6,0.4-0.9,1.2-0.7,2l4,13.4
			c0.2,0.7,0.9,1.2,1.6,1.3l11.5,0.6l6,7.5l-1.8,11.4c-0.1,0.8,0.2,1.5,0.9,1.9l12.3,6.7c0.7,0.4,1.5,0.3,2.1-0.2l8.6-7.7l9.6,1
			l6.8,9.3c0.3,0.5,0.9,0.7,1.5,0.7c0.2,0,0.3,0,0.5-0.1l13.4-4c0.7-0.2,1.2-0.9,1.3-1.6l0.6-11.5l7.5-6l11.4,1.8
			c0.8,0.1,1.5-0.3,1.9-0.9l6.7-12.3c0.4-0.7,0.3-1.5-0.2-2.1l-7.7-8.6l1-9.6L216.4,123.1z M202.9,141.2l7.4,8.2l-5.5,10l-10.9-1.7
			c-0.5-0.1-1,0.1-1.4,0.4l-8.7,7c-0.4,0.3-0.6,0.8-0.7,1.3l-0.6,11l-11,3.2l-6.5-8.9c-0.3-0.4-0.8-0.7-1.3-0.7l-11.1-1.2
			c-0.1,0-0.1,0-0.2,0c-0.4,0-0.9,0.2-1.2,0.5l-8.2,7.4l-10-5.5l1.7-10.9c0.1-0.5-0.1-1-0.4-1.4l-7-8.7c-0.3-0.4-0.8-0.6-1.3-0.7
			l-11-0.6l-3.2-11l8.9-6.5c0.4-0.3,0.7-0.8,0.7-1.3l1.2-11.1c0.1-0.5-0.1-1-0.4-1.4l-7.4-8.2l5.5-10l10.9,1.7
			c0.5,0.1,1-0.1,1.4-0.4l8.7-7c0.4-0.3,0.6-0.8,0.7-1.3l0.6-11l11-3.2l6.5,8.9c0.3,0.4,0.8,0.7,1.3,0.7l11.1,1.2
			c0.5,0.1,1-0.1,1.4-0.4l8.2-7.4l10,5.5l-1.7,10.9c-0.1,0.5,0.1,1,0.4,1.4l7,8.7c0.3,0.4,0.8,0.6,1.3,0.7l11,0.6l3.2,11l-8.9,6.5
			c-0.4,0.3-0.7,0.8-0.7,1.3l-1.2,11.1C202.4,140.4,202.5,140.9,202.9,141.2z"/>
	</g>
	<rect class="st2" width="325" height="260"/>
</g>
</svg>
